<?xml version="1.0" standalone="no"?>
<!DOCTYPE svg PUBLIC "-//W3C//DTD SVG 20010904//EN"
 "http://www.w3.org/TR/2001/REC-SVG-20010904/DTD/svg10.dtd">
<svg version="1.0" xmlns="http://www.w3.org/2000/svg"
 width="700.000000pt" height="700.000000pt" viewBox="0 0 700.000000 700.000000"
 preserveAspectRatio="xMidYMid meet">
<metadata>
Created by potrace 1.11, written by Peter Selinger 2001-2013
</metadata>
<g transform="translate(0.000000,700.000000) scale(0.100000,-0.100000)"
fill="#000000" stroke="none">
<path d="M5135 6894 c-130 -106 -352 -259 -475 -328 -240 -135 -539 -266 -807
-355 -130 -42 -419 -121 -493 -134 -14 -3 -43 -10 -65 -15 -22 -6 -53 -13 -70
-15 -16 -3 -41 -8 -55 -11 -27 -6 -65 -13 -120 -22 -19 -3 -62 -10 -95 -16
-82 -14 -117 -20 -135 -20 -8 0 -33 -4 -55 -8 -22 -5 -71 -11 -110 -15 -38 -4
-72 -8 -75 -10 -3 -1 -39 -6 -80 -9 -73 -6 -133 -12 -215 -21 -22 -2 -89 -7
-150 -11 -60 -4 -117 -8 -125 -10 -8 -1 -41 -3 -72 -3 -32 -1 -58 -5 -58 -9 0
-22 787 -20 1040 3 19 2 71 6 115 10 104 8 144 13 197 20 24 3 61 8 83 11 22
2 58 7 80 10 184 26 185 25 50 -21 -326 -113 -650 -193 -833 -207 -36 -3 -44
-18 -9 -18 12 -1 49 -4 82 -8 76 -9 287 -8 385 1 138 12 293 44 398 81 122 43
-53 -44 -238 -119 -233 -94 -610 -200 -820 -231 -19 -3 -57 -9 -85 -14 -27 -5
-70 -12 -95 -15 -25 -3 -56 -8 -70 -10 -48 -7 -185 -24 -245 -30 -126 -13
-142 -14 -210 -20 -134 -11 -171 -14 -300 -21 -178 -9 -236 -12 -338 -13 -53
-1 -86 -5 -82 -10 6 -10 1243 -8 1365 2 36 3 110 8 165 12 137 8 222 14 274
21 24 3 67 7 95 9 81 7 147 15 211 25 33 5 80 12 105 15 36 4 247 40 294 49 6
2 29 6 51 10 61 11 214 47 271 62 28 8 60 17 70 19 40 9 93 24 189 53 594 179
957 436 1144 809 38 76 78 198 87 261 3 26 8 56 10 67 8 39 5 191 -4 239 -9
42 -24 66 -42 65 -3 0 -63 -47 -135 -105z"/>
<path d="M5378 6169 c-88 -24 -129 -81 -152 -214 -27 -152 -19 -193 43 -224
64 -32 264 -94 300 -93 34 1 73 29 92 64 19 35 92 284 92 316 1 62 -39 104
-109 116 -16 3 -54 10 -84 16 -30 6 -73 13 -95 16 -22 3 -44 6 -50 8 -5 2 -22
0 -37 -5z"/>
<path d="M1855 5880 c3 -5 8 -10 11 -10 2 0 4 5 4 10 0 6 -5 10 -11 10 -5 0
-7 -4 -4 -10z"/>
<path d="M4630 5643 c-52 -13 -104 -27 -115 -32 -19 -8 -238 -88 -260 -95 -10
-3 -16 -6 -125 -51 -504 -209 -994 -500 -1389 -823 -150 -123 -188 -158 -361
-332 -142 -142 -189 -191 -260 -276 -13 -16 -55 -65 -93 -109 -220 -254 -376
-531 -477 -849 -28 -86 -64 -231 -74 -293 -2 -15 -8 -48 -12 -73 -22 -140 -31
-377 -19 -529 69 -852 583 -1592 1359 -1960 48 -22 90 -41 93 -41 2 0 23 -9
47 -19 62 -29 256 -86 371 -110 186 -38 257 -45 465 -46 162 0 283 7 370 21
168 27 399 90 520 141 472 200 830 493 1096 898 211 322 365 756 378 1066 2
61 -14 229 -28 289 -3 14 -8 41 -10 60 -3 19 -15 71 -26 115 -116 444 -366
803 -730 1047 -406 272 -904 362 -1362 247 -469 -118 -884 -447 -1092 -866
-73 -146 -73 -148 -86 -203 -16 -73 -11 -89 12 -37 35 79 41 61 22 -58 -3 -22
-8 -49 -10 -60 -3 -11 -7 -72 -10 -135 -5 -113 -5 -115 13 -87 11 16 27 27 40
27 13 0 37 13 55 29 41 37 45 90 12 179 -30 78 -30 121 -2 157 17 21 23 24 29
13 12 -21 20 -73 24 -147 2 -43 8 -67 17 -72 40 -22 57 -47 63 -89 4 -24 11
-53 17 -63 5 -10 7 -36 3 -57 -5 -31 -3 -40 13 -51 16 -12 19 -25 16 -101 -2
-87 12 -172 40 -238 l14 -35 19 63 c14 49 22 62 38 63 29 1 41 4 129 33 43 14
86 26 95 26 29 0 59 -29 66 -63 3 -17 13 -53 21 -78 11 -34 12 -53 5 -73 -13
-32 5 -35 50 -9 26 16 31 16 39 3 14 -22 15 -56 5 -106 -20 -92 -18 -112 12
-166 16 -29 32 -63 35 -75 5 -18 0 -17 -41 14 -25 20 -57 46 -70 59 -22 23
-41 31 -41 18 0 -13 25 -52 56 -87 19 -20 34 -44 34 -52 0 -24 133 -155 158
-155 29 0 28 18 -2 63 -14 20 -30 46 -36 57 -11 20 -10 21 9 11 46 -25 42 -8
-19 72 -27 36 -59 82 -70 101 -24 43 -27 114 -5 122 30 12 135 -81 135 -120 0
-21 4 -24 26 -20 45 8 104 36 114 53 6 13 -3 36 -36 91 -48 80 -54 118 -26
143 39 36 88 11 76 -37 -4 -18 -2 -26 7 -26 30 0 41 17 34 49 -6 29 -5 31 22
32 15 1 34 1 41 0 27 -4 118 20 160 41 56 28 122 100 122 133 0 14 -4 25 -8
25 -11 0 -43 145 -37 162 3 8 15 18 28 23 33 15 26 30 -16 33 -66 6 -59 37 17
78 l29 16 -5 -30 -4 -30 38 21 c33 19 40 20 48 7 5 -8 10 -25 10 -37 0 -16 6
-23 20 -23 26 0 36 -25 22 -56 -11 -22 -9 -24 13 -24 45 0 60 68 25 113 -21
27 -26 47 -11 47 6 0 22 22 37 48 23 42 30 48 54 44 49 -7 120 86 144 187 13
55 12 62 -5 90 -10 17 -24 32 -31 33 -7 0 -26 2 -41 3 -25 2 -64 25 -43 25 5
0 3 6 -3 14 -9 11 -1 26 40 75 52 63 65 70 135 75 52 4 66 12 63 39 -2 38 1
47 15 47 8 0 17 -6 19 -12 4 -8 8 -4 12 9 4 13 11 21 15 18 10 -6 5 -63 -9
-98 -16 -41 -14 -68 8 -91 11 -12 30 -43 44 -69 30 -61 39 -44 31 56 -5 54
-13 82 -32 110 -29 43 -23 69 17 75 16 3 21 10 21 31 0 16 3 43 6 60 6 27 4
31 -14 31 -22 0 -35 14 -39 42 -2 14 3 16 27 11 17 -3 30 -1 30 5 0 21 -28 29
-102 28 -62 -1 -80 -5 -90 -19 -19 -26 -81 -38 -112 -22 -14 8 -34 11 -44 8
-11 -2 -36 0 -55 5 -28 8 -39 7 -48 -4 -6 -7 -27 -18 -47 -24 -32 -8 -41 -6
-72 15 -25 17 -54 25 -104 30 -38 3 -72 7 -74 10 -12 11 32 16 67 7 49 -12 95
8 113 49 15 33 28 37 34 11 3 -9 25 -25 49 -35 40 -17 45 -17 68 -2 24 15 28
15 75 -9 57 -29 129 -37 142 -16 5 8 6 18 4 22 -3 4 9 8 26 8 36 0 32 16 -8
31 -21 8 -23 12 -12 19 8 5 18 6 22 4 4 -3 8 4 8 15 0 12 6 21 13 21 10 0 13
11 11 38 -2 20 -3 42 -3 49 -1 7 -16 23 -33 35 -31 21 -48 48 -31 48 16 0 73
-40 73 -51 0 -6 16 -26 36 -44 l36 -33 -17 -30 c-17 -28 -17 -30 6 -61 18 -24
30 -31 57 -31 30 0 34 -3 29 -21 -6 -24 21 -39 33 -19 7 11 11 11 24 1 9 -8
16 -20 16 -27 0 -8 20 -24 44 -36 39 -19 47 -19 75 -7 35 16 39 25 14 34 -10
3 -32 26 -50 50 -26 36 -29 46 -19 60 11 16 19 12 77 -36 88 -74 119 -109 198
-224 123 -180 222 -421 248 -605 3 -19 9 -55 13 -80 15 -81 9 -337 -12 -455
-37 -216 -136 -451 -266 -635 -72 -102 -221 -259 -317 -336 -204 -163 -478
-291 -735 -343 -141 -29 -162 -31 -320 -36 -769 -26 -1457 436 -1689 1132 -17
51 -33 103 -35 115 -7 33 -24 127 -32 168 -20 116 -9 389 22 520 3 14 7 32 9
40 14 70 76 260 118 361 183 442 574 877 1110 1236 189 127 316 200 557 322
239 121 548 251 821 346 192 67 414 135 459 141 93 13 102 39 38 108 -280 294
-373 386 -415 408 -113 61 -225 70 -383 31z m-547 -1897 c26 -8 27 -10 12 -26
-15 -17 -15 -19 1 -28 14 -8 10 -11 -22 -16 -67 -12 -68 -23 -2 -22 48 1 63
-2 66 -14 1 -10 -10 -20 -30 -28 -41 -15 -27 -34 33 -41 3 -1 4 -13 1 -27 -7
-40 18 -49 73 -28 17 7 18 5 8 -8 -13 -15 -59 -36 -128 -58 -22 -7 -48 -19
-57 -28 -16 -14 -18 -13 -18 3 0 11 -5 15 -15 11 -8 -3 -15 -1 -15 4 0 25 -50
-9 -54 -37 -2 -10 -10 -17 -20 -15 -8 2 -26 -2 -38 -8 -26 -13 -31 -17 59 53
23 17 42 35 43 39 0 9 -59 -11 -84 -28 -16 -11 -21 -10 -36 9 -15 18 -20 19
-33 9 -12 -11 -18 -9 -33 10 -11 13 -25 23 -31 24 -47 4 -48 5 -23 19 24 13
22 13 -23 9 -26 -2 -55 0 -64 5 -14 8 -12 12 18 30 31 19 34 20 37 3 6 -29 18
-33 38 -12 10 12 32 34 48 50 27 26 27 29 10 38 -11 6 -41 13 -68 17 -33 5
-44 10 -34 16 23 13 97 36 183 58 121 30 147 32 198 17z m-384 -136 c-8 -4
-36 -10 -63 -14 -58 -6 -75 -18 -56 -41 10 -12 10 -18 -1 -31 -11 -14 -14 -13
-25 8 -10 19 -19 22 -51 20 -35 -3 -37 -2 -22 13 9 9 45 23 80 31 88 19 101
23 106 28 2 2 13 1 25 -2 15 -4 17 -7 7 -12z m-449 -269 c0 -6 -5 -13 -11 -16
-6 -4 -8 -13 -5 -21 4 -11 -32 -62 -85 -118 -5 -5 -6 12 -3 38 6 43 4 48 -12
44 -12 -2 -28 -26 -45 -68 -27 -65 -67 -120 -88 -120 -26 0 69 150 133 209 23
22 89 58 109 60 4 1 7 -3 7 -8z"/>
<path d="M946 5278 c3 -4 9 -8 15 -8 5 0 9 4 9 8 0 5 -7 9 -15 9 -8 0 -12 -4
-9 -9z"/>
<path d="M4754 2888 c2 -14 6 -31 11 -38 4 -7 9 -25 10 -39 3 -32 24 -103 35
-114 4 -5 10 -2 13 7 3 8 -1 20 -9 26 -18 16 -19 64 0 57 8 -3 2 16 -16 51
-35 69 -47 83 -44 50z"/>
<path d="M4797 2635 c4 -23 2 -35 -6 -35 -6 0 -11 -8 -11 -17 1 -17 1 -17 11
-1 7 12 18 16 37 12 21 -4 30 0 40 17 12 18 12 23 0 30 -7 5 -21 9 -30 9 -9 0
-20 5 -23 10 -13 22 -23 8 -18 -25z"/>
<path d="M4798 2538 c-3 -8 -5 -28 -3 -46 3 -37 -36 -85 -62 -75 -10 4 -14 0
-13 -13 4 -35 0 -41 -30 -42 -33 -1 -92 -31 -84 -44 3 -4 -2 -8 -10 -8 -22 0
-27 -15 -15 -47 10 -27 11 -27 25 -9 8 11 14 28 14 38 0 17 37 45 47 35 2 -3
-5 -8 -16 -12 -22 -7 -29 -25 -10 -25 14 0 39 25 39 39 0 6 6 11 14 11 8 0 13
-7 12 -16 -2 -27 23 -28 29 -2 4 17 14 24 32 26 47 4 61 26 61 102 0 68 -18
121 -30 88z"/>
<path d="M4308 2053 c-22 -26 -28 -60 -12 -74 11 -9 17 -4 29 25 19 45 8 77
-17 49z"/>
<path d="M3188 1944 c-11 -23 -10 -28 7 -40 16 -12 20 -12 27 0 8 14 -6 66
-17 66 -3 0 -11 -12 -17 -26z"/>
<path d="M4286 1858 c-3 -13 -7 -42 -8 -65 -3 -39 -1 -43 19 -43 19 0 22 4 18
23 -4 14 -1 28 8 35 20 17 10 72 -14 72 -11 0 -20 -9 -23 -22z"/>
<path d="M4347 1742 c6 -14 25 -12 30 4 2 5 -5 10 -16 10 -11 0 -17 -5 -14
-14z"/>
<path d="M4286 1725 c4 -8 10 -15 15 -15 4 0 6 7 3 15 -4 8 -10 15 -15 15 -4
0 -6 -7 -3 -15z"/>
<path d="M4395 1710 c-3 -5 -21 -10 -38 -10 -20 0 -27 -3 -19 -8 14 -10 6 -42
-12 -42 -6 0 -5 -4 4 -9 10 -7 20 -1 37 25 25 36 38 42 46 22 3 -10 7 -10 17
-1 9 9 8 14 -8 22 -14 7 -23 8 -27 1z"/>
<path d="M4390 1676 c0 -2 7 -9 15 -16 9 -7 15 -8 15 -2 0 5 -7 12 -15 16 -8
3 -15 4 -15 2z"/>
<path d="M4377 1614 c-15 -8 -37 -12 -47 -9 -12 4 -20 2 -20 -5 0 -8 13 -11
35 -8 32 4 39 -2 37 -24 -1 -3 6 -9 14 -12 10 -4 18 1 21 13 3 11 11 17 18 15
9 -4 11 2 8 20 -6 30 -25 32 -66 10z"/>
<path d="M4135 1582 c-11 -2 -34 -16 -52 -29 -18 -14 -33 -22 -33 -19 0 4 -13
0 -29 -8 -15 -8 -37 -15 -47 -15 -17 0 -65 -7 -72 -10 -1 0 2 -9 8 -18 6 -10
19 -31 29 -48 15 -25 26 -31 68 -36 28 -4 58 -11 68 -16 22 -13 55 -5 55 13 0
7 9 19 20 27 12 8 20 20 18 27 -2 7 7 16 20 19 l23 6 -21 17 c-25 22 -25 34 1
48 35 19 -8 52 -56 42z"/>
<path d="M4464 1465 c-21 -32 -8 -55 14 -23 9 12 17 29 18 35 3 21 -15 15 -32
-12z"/>
<path d="M4244 1462 c-20 -15 -53 -71 -45 -76 5 -4 7 -15 4 -26 -6 -21 3 -25
25 -12 7 5 10 16 6 25 -4 12 -1 17 10 17 9 0 16 -6 16 -12 1 -24 29 -53 40
-42 7 7 4 19 -10 36 -11 15 -20 31 -20 37 0 8 -6 9 -19 2 -23 -13 -35 -3 -20
16 7 8 34 13 75 13 35 0 64 4 64 9 0 5 -19 8 -42 6 -24 -1 -50 2 -59 6 -8 4
-19 5 -25 1z"/>
<path d="M4568 1425 c-3 -3 7 -19 22 -35 20 -22 36 -29 61 -28 52 1 99 -5 99
-14 0 -4 -4 -8 -8 -8 -5 0 -17 -7 -28 -15 -17 -13 -13 -14 51 -11 46 2 85 11
111 24 29 15 52 19 81 15 22 -3 49 -1 59 5 17 10 16 11 -9 17 -15 4 -24 12
-20 18 4 6 1 7 -6 3 -7 -5 -21 0 -32 9 -28 27 -210 27 -258 2 -32 -18 -33 -18
-46 0 -12 17 -65 30 -77 18z"/>
<path d="M4285 1410 c3 -5 12 -7 20 -3 21 7 19 13 -6 13 -11 0 -18 -4 -14 -10z"/>
<path d="M3836 1382 c15 -14 168 -59 229 -68 l30 -5 -30 14 c-16 8 -55 20 -85
26 -30 7 -70 19 -88 27 -36 16 -72 19 -56 6z"/>
<path d="M4470 1385 c0 -3 11 -10 25 -15 25 -10 58 -4 51 9 -5 8 -76 14 -76 6z"/>
<path d="M4415 1370 c3 -5 10 -10 16 -10 5 0 9 5 9 10 0 6 -7 10 -16 10 -8 0
-12 -4 -9 -10z"/>
<path d="M4108 1303 c7 -3 16 -2 19 1 4 3 -2 6 -13 5 -11 0 -14 -3 -6 -6z"/>
<path d="M4341 1273 c-24 -11 -23 -12 14 -6 51 7 81 22 41 20 -16 -1 -40 -7
-55 -14z"/>
<path d="M4792 1259 c-24 -26 -39 -33 -82 -37 -44 -4 -56 -2 -67 14 -12 17
-18 17 -71 5 -31 -7 -82 -17 -113 -21 -30 -4 -76 -16 -101 -28 -53 -23 -103
-33 -197 -38 -65 -3 -110 -10 -118 -17 -2 -2 4 -14 14 -26 17 -20 38 -26 168
-49 78 -14 212 -4 388 26 187 33 230 47 284 88 44 33 43 54 -1 54 -30 0 -35 3
-38 27 -4 39 -31 40 -66 2z"/>
</g>
</svg>
