<svg t="1597849987880" class="icon" viewBox="0 0 1024 1024" version="1.1" xmlns="http://www.w3.org/2000/svg" p-id="719"
    width="200" height="200">
    <path
        d="M596.48 210.944c49.152-14.848 97.792-35.84 134.144-72.192 10.752-10.752 19.968-22.528 27.136-35.328 7.68-12.8 13.312-26.624 16.896-41.472 3.584-14.336 4.608-29.184 3.584-43.52l-1.536-10.752c-0.512-3.072-1.024-6.656-4.608-7.168-1.024 0-1.536 0-2.56 0.512-2.56 1.024-4.608 4.096-6.656 5.12-3.072 2.56-6.656 5.632-9.728 8.192-13.312 10.752-27.136 20.992-41.472 30.72-11.776 7.68-23.552 14.848-35.328 21.504-123.904 69.632-269.312 89.6-411.136 96.768-0.512 0-0.512 0.512 0 0.512 86.528 5.632 174.08 1.536 259.584-12.288 0.512 0 0.512 0.512 0 0.512-50.176 16.896-99.84 33.792-151.552 37.888-0.512 0-0.512 0.512 0 0.512 47.616 7.68 97.28 3.584 142.336-12.288 0.512 0 0.512 0.512 0 0.512-117.76 60.928-253.44 68.096-388.608 72.704-0.512 0-0.512 0.512 0 0.512 158.208 3.072 318.464 5.12 469.504-40.96zM766.464 142.336l-4.608 25.6c-1.536 8.192 3.584 16.896 11.776 19.456l33.792 11.264c9.216 3.072 18.944-2.048 22.016-11.264l11.776-38.4c3.072-9.728-3.072-20.48-13.312-22.016l-30.72-5.632c-14.336-2.56-28.16 7.168-30.72 20.992zM883.712 624.64c-23.04-70.144-72.704-123.392-134.144-152.576-55.808-26.624-121.344-32.768-184.32-11.776-49.152 16.384-92.16 47.616-122.368 89.6-8.192 10.752-15.36 23.04-21.504 35.328-5.12 10.24-13.312 29.696-11.776 39.424 2.048-5.632 4.096-10.752 6.656-15.872v2.048c0.512-0.512 0.512-1.024 1.024-2.048v0.512c0 1.024 0.512 1.536 0.512 2.56v1.024l-0.512 5.632c-0.512 2.56-1.024 5.632-1.536 8.192l-1.536 10.752c-1.536 11.264-1.536 23.04-2.048 34.816 0.512-3.584 4.096-5.632 5.12-9.216 6.656 0 13.824-3.584 15.872-9.728 2.048-5.12 1.024-11.264-1.024-16.896s-4.608-10.752-5.12-16.384 2.048-12.288 7.68-14.336c2.56 8.704 3.584 17.92 3.584 26.624 0 2.048 0 4.608 1.536 6.656 2.048 2.56 6.144 3.072 8.192 5.632 3.072 3.584 1.024 8.704 2.56 13.312 1.024 3.584 4.096 6.656 3.072 10.24-0.512 1.536-1.536 2.56-2.048 4.096-1.024 3.072 3.072 7.168 6.656 6.144-3.584 17.92-1.536 36.864 6.656 53.248 2.048-6.144 4.096-12.288 5.632-17.92 5.12 0.512 9.728-1.024 14.848-2.56 3.584-1.536 7.68-2.56 11.264-4.096 4.608-1.536 10.24-3.072 14.336-0.512 5.12 3.072 5.12 9.728 6.144 14.848 1.024 3.584 2.56 6.656 3.072 9.728 0.512 3.584-0.512 7.168-3.584 9.216 5.12 0.512 10.752-1.536 13.824-5.632 4.608 4.096 4.608 11.264 3.072 17.408s-3.584 12.288-2.048 17.92c1.536 4.608 5.12 8.704 7.168 13.312 1.024 2.56 1.536 5.632 3.072 8.192 2.56 5.12 8.192 8.192 14.336 8.192l-13.824-18.432c-3.072-3.584-5.632-7.68-7.168-12.288s-2.048-9.216 0-13.312c0-0.512 0.512-1.024 1.024-1.024 1.024-1.024 3.072 0 4.096 1.024 2.56 2.048 5.12 4.096 7.68 5.632 2.56 2.048 5.12 4.096 6.656 6.656s2.56 6.144 0.512 8.704c6.144-0.512 12.8-2.56 17.92-5.632 2.048-1.024 4.608-3.072 4.096-5.632 0-1.024-0.512-2.56-1.536-3.584-1.536-2.048-2.56-4.608-4.096-6.656-2.048-3.072-4.608-6.144-5.632-9.728-1.536-3.584-1.536-7.68 0.512-10.752s6.656-5.12 9.728-3.072c3.584 1.536 4.096 7.168 1.024 8.704 0 2.048 3.072 3.584 5.12 2.56s3.072-3.072 3.072-5.12-1.536-4.096-2.56-5.632c3.584-1.536 8.192-1.024 12.288-1.024 15.872 0 30.72-8.192 38.912-20.992 1.024-1.536 1.536-3.072 1.536-4.608 0-1.536-1.024-3.584-3.072-4.096-1.536-5.632-2.56-11.776-4.096-17.408-0.512-2.56-1.024-6.144 1.536-7.68 1.536-1.024 3.072-1.024 4.608-2.048s2.048-3.072 0.512-4.096c-2.048-1.024-4.608 0-6.656 0-2.56 0-5.12-1.536-5.12-3.584 0-1.024 1.024-1.536 1.536-2.56 3.584-3.072 7.68-5.632 12.288-7.168-0.512 3.072-1.024 5.632-1.536 8.704 3.584-2.56 7.168-4.608 11.264-6.144 2.56 2.56 3.584 6.656 2.56 10.24 3.072 0 7.168 0.512 8.192 3.072 0.512 3.072-4.096 6.144-2.56 9.216 5.12 1.536 9.728-3.584 9.728-8.704 0-4.608-3.584-9.216-7.168-12.8 3.072-2.048 5.632-5.12 7.168-8.704 1.536-3.072 3.584-5.632 5.12-8.704-1.536 2.048 6.144 2.56 7.168 2.048 3.072-1.536 6.144-5.632 8.192-8.192 4.608-6.144 8.192-13.312 9.728-20.992 0.512-3.584 1.024-7.168-0.512-10.24-1.024-3.072-4.096-6.144-7.68-6.656-2.048-0.512-4.096 0-5.632 0-2.048 0-4.096-1.024-4.608-3.072 0-1.024 0-2.56-1.024-3.072-0.512-0.512-1.024 0-1.536-0.512 0-0.512 0-0.512 0.512-1.024 4.096-4.608 7.68-9.216 11.776-13.824 1.024-1.536 2.56-3.072 4.096-4.096 4.096-2.56 9.728-2.048 15.36-2.048 1.536 0 3.584-0.512 4.608-1.536 1.024-1.536 1.024-3.072 0.512-5.12-0.512-1.536-0.512-3.584 0-5.12 1.024-1.536 3.584-2.048 4.608-1.024v3.584c2.56-1.536 4.096-5.12 3.072-8.192 3.584 4.096 2.56 10.24 1.024 14.848-1.536 4.096-4.096 8.704-2.048 12.8 0.512 1.536 2.048 2.56 3.072 3.584 4.096 4.608 7.168 10.752 8.192 16.896 2.56-2.56 3.072-6.144 2.56-9.728-0.512-3.584-1.536-6.656-1.536-10.24 0-2.048 0.512-3.584 0-5.632-1.024-5.12-7.68-8.192-6.656-13.312 0.512-3.584 5.12-5.632 8.704-3.584-1.024-5.12-0.512-10.24 1.024-14.848 0-0.512 0.512-1.024 0.512-2.048-0.512-2.56-6.144-1.024-7.68-3.072s0-5.632-2.048-6.144c0.512-1.536 2.56-2.048 4.096-1.024-1.024 1.024 1.024 2.048 2.048 2.048 1.536-0.512 2.56-1.536 4.096-0.512-1.024-2.56-2.56-4.608-5.12-5.632-1.024-0.512-2.048-1.024-3.072-0.512-1.024 0.512-1.024 1.536-0.512 2.048-4.608-0.512-9.728-1.024-14.336-1.536-2.048 0-5.12 0-5.632 2.048-0.512 1.024 0 2.56-0.512 3.072s-1.536 0.512-2.048 1.024l-10.752 1.536h-2.56l-1.536-1.536c-1.536-1.536-4.096-2.048-6.144-1.536-1.024 0.512-2.048 1.024-2.56 1.024-1.024 0-2.048 0-3.072-0.512-2.56-1.024-4.608-1.536-7.168-2.56-1.024 3.072-4.608 5.12-7.68 6.144-3.584 0.512-7.168 0.512-10.24 0-1.536-4.608-7.68-6.656-12.8-6.656s-10.752 0.512-15.36-1.536c2.048-1.536 4.608-3.584 7.168-2.56 1.024 0.512 1.536 1.024 2.048 1.024 4.096 2.048 9.216 1.536 12.8-0.512 3.584-2.56 6.144-6.144 7.168-10.752 1.536-0.512 2.56 1.024 3.072 2.56s0.512 3.072 2.048 3.584c0.512 0.512 1.536 0 2.048 0.512 3.584 0.512 6.144 5.12 9.728 3.584 1.536-0.512 2.048-2.048 3.584-2.56 2.56-2.048 6.656-1.024 9.216 1.024 3.072 1.536 5.632 4.096 8.704 4.608 1.536 0.512 3.584 0.512 5.12 0.512 2.56 0 5.12 0.512 7.168-0.512s3.072-4.096 1.024-5.632h10.24c-3.072-3.072-6.656-5.12-10.752-6.144 1.536-1.536 4.096-2.048 6.144-2.048 0.512-1.024 0-2.048-0.512-3.072 1.536-1.536 3.072-2.048 5.12-2.048-1.024-1.536-1.024-3.584-1.024-5.12s0.512-2.56 0.512-4.096c0-5.632-5.632-9.216-10.752-11.776 1.024-1.536 0-3.072-1.536-4.608 3.072 1.024 6.144 2.048 8.704 3.584 1.024 0.512 1.536 1.024 2.56 2.048 2.048 2.56 2.56 6.144 5.12 8.192 1.536 1.024 3.072 1.536 4.608 2.56 1.536 1.024 2.56 3.072 2.048 4.608-0.512 1.024-1.024 1.536-1.536 2.048-2.048 2.048-3.584 5.632-1.536 7.68 1.024 1.024 3.072 2.048 3.584 3.584 0 0.512 0.512 1.536 0.512 2.048 0.512 1.024 2.048 1.536 3.584 1.536s2.56-0.512 4.096-0.512 2.56 0.512 3.584 1.536c0.512 1.024-0.512 2.56-1.536 2.56-0.512 1.536 1.024 3.584 3.072 3.584s3.072-1.536 3.072-3.584c3.072 0.512 5.12 3.072 5.632 5.632 0 1.024 0 2.048 0.512 2.56s1.024 1.024 1.536 1.024c3.072 1.024 5.632 2.56 8.704 3.584 2.048 1.024 4.608 1.536 5.632-0.512 0.512-0.512 0.512-1.024 0.512-1.536 1.024-1.024 4.608 0 4.608-1.536 0-1.024-1.024-1.536-1.536-1.536-3.072-1.536-5.632-3.584-6.656-6.656l-1.536-3.072c-1.536-1.024-3.584-1.536-4.096-3.584-0.512-1.024 0.512-2.56 1.024-3.584 0.512-1.024 1.024-2.56 0-3.584 0.512 0 0.512 0 1.024 0.512 8.192 6.144 16.384 12.8 23.552 19.968 34.816 40.448 55.808 92.16 55.808 148.992 0 131.072-112.128 237.056-250.88 237.056s-250.88-105.984-250.88-237.056c0-19.968 2.56-39.936 7.68-58.368 1.536-6.144 3.584-12.288 5.632-18.432 15.872-57.344 90.112-224.256 433.152-326.144 3.072-1.024 9.728-2.048 15.36-2.56 4.608-0.512 6.144-6.144 3.072-9.728l-48.128-50.176c-9.728-12.288-23.04-19.456-37.376-22.016-21.504-3.584-43.008 4.608-63.488 11.264-11.264 4.096-22.528 8.192-33.792 12.8-33.28 13.312-66.048 28.672-97.28 46.08-41.472 23.04-80.384 49.152-117.248 78.848-35.84 29.184-69.12 61.952-98.304 97.792-14.848 15.872-28.672 33.792-39.936 52.224-5.12 8.704-10.24 17.408-14.848 26.112 0-0.512 0.512-1.024 0.512-1.536-0.512 1.024-0.512 1.536-1.024 2.56-1.024 1.536-1.536 3.072-2.56 5.12v0.512c-22.016 45.568-34.816 96.256-34.816 150.528 0 190.976 154.624 346.112 345.088 346.112 125.952 0 236.544-67.584 296.448-168.96 13.824-23.04 24.576-47.616 32.768-73.216 7.68-25.088 14.848-51.712 14.336-78.336-2.56-26.624-6.656-53.248-15.36-78.848z m-355.84-132.608c-0.512 0-1.024 0-1.536 0.512 0.512-0.512 1.024-0.512 1.536-0.512 0-0.512 0 0 0 0z m-52.736 44.544c-1.024 1.024-2.048 2.048-2.56 3.072s1.536 2.56 2.048 2.048l-15.36 18.432 1.536-10.752c0-2.048-0.512-4.608-2.56-4.096-0.512 0-1.024 0.512-1.536 1.024-3.584 4.608-5.12 10.24-7.168 15.36s-5.632 10.752-11.776 12.288c1.536-3.584 2.56-7.168 4.096-10.752 0.512-1.024 1.536-2.048 2.048-3.072 5.12-7.168 11.264-13.824 16.896-19.968 4.096-2.048 8.704-4.096 12.8-5.632 2.56-1.536 2.56 0.512 1.536 2.048z m52.736-38.4c-2.048 0.512-4.608 1.024-5.632 3.072s2.048 4.608 3.584 3.072c-0.512 1.536-1.024 3.584-1.536 5.12-1.024 0-2.048 0.512-3.072 0.512l-3.072-6.144-10.752 1.536c0.512-1.024 1.024-2.048 1.536-3.584 2.048-1.024 4.608-2.56 6.656-3.584 4.096 1.536 9.216-0.512 13.312-2.048 4.608-2.048 10.752-3.584 14.336 0-5.12 0.512-10.24 1.024-15.36 2.048z m91.136 12.288c-4.608 3.072-9.216 6.144-14.848 7.68-2.56 0.512-5.12 0.512-7.68 1.536-4.096 1.536-7.68 4.608-9.216 8.192 0.512-2.56 0.512-4.608 1.024-7.168-1.536 0-3.584 0.512-4.608 2.048-0.512-1.536 0-3.072 1.024-4.096-3.584 1.536-7.168 4.096-10.24 6.656 2.048 1.024 2.048 4.608-0.512 5.632 2.048-1.536-1.536-3.584-3.584-2.56-2.048 1.024-4.096 3.072-6.144 2.048 7.168-4.096 13.824-9.216 19.456-15.36-7.168 1.024-13.824 4.096-18.944 9.216 2.048-2.048 1.536-5.12-0.512-6.656s-5.632-0.512-6.656 2.048c-1.536-2.048-3.584-4.608-5.12-6.656-3.072-0.512-6.144-0.512-9.216-1.024 2.56-2.048 5.632-3.072 8.704-4.096-5.632 0.512-11.264 0.512-16.896 1.024-0.512-1.024-1.536-1.536-2.56-2.048 3.072-3.072 6.656-5.632 10.752-6.656v6.144c2.56 1.536 5.632-1.024 6.656-3.072 1.024-2.56 2.048-5.12 4.608-6.144 1.024-0.512 2.56-0.512 3.584-1.536 1.536-2.048-1.536-4.096-3.584-4.608-5.12-2.048-10.752-2.56-16.384-3.072 17.92-7.168 36.352-11.776 55.808-14.336v0.512c1.536 2.56 5.12 3.072 8.192 3.584-2.048 1.024-3.584 2.56-5.12 4.608 1.536 1.024 3.072 2.048 4.608 2.56-5.12 1.536-10.752 2.56-15.872 4.096 3.584 1.536 7.68 0 11.776-0.512s8.704 1.536 8.704 5.12c-2.56 2.56-9.216 1.024-9.216 4.608 0 4.096 8.704 1.024 10.752 4.608-2.56 1.024-3.584 4.608-2.048 6.656 1.536 2.048 4.608 3.072 7.168 2.048 1.024-0.512 2.048-2.048 3.584-2.048 1.536-1.536 3.584 0 2.56 1.024z"
        fill="#fe2206" p-id="720"></path>
    <path
        d="M630.784 852.48c-12.288 4.096-27.136 0.512-39.424 5.12 1.024 3.584 3.584 6.144 6.656 7.68 9.728 0.512 18.944 3.584 28.672 4.608 15.36 1.536 31.232-2.56 46.592-5.12 8.192-1.536 16.896-2.048 25.088-4.096 8.192-2.048 16.384-5.632 21.504-11.776 1.024-1.024 2.048-2.56 1.536-4.096-3.072-0.512-6.144-0.512-8.704-1.024-0.512 0-1.024 0-1.536-0.512-1.536-1.024 0.512-4.096-0.512-6.144-0.512-2.048-4.096-2.048-6.144-1.024-2.048 1.536-2.56 3.584-4.096 5.12-3.584 3.584-9.216 4.096-13.824 4.608-3.072 0-6.656 0-7.168-2.56-0.512-1.024-0.512-1.536-1.024-2.048-0.512-0.512-1.536-0.512-2.048-0.512-5.632 0.512-11.264 2.048-16.384 4.096-1.536 0.512-3.072 1.024-4.608 1.024-1.536 0-3.072 0-4.608-0.512-7.168 0.512-13.312 5.12-19.968 7.168zM628.224 774.656c1.024-0.512 1.536-1.536 1.536-2.56s-1.024-2.048-2.048-2.56c-0.512-0.512-1.536-0.512-2.048-0.512-0.512 1.536 4.096 3.584 2.56 5.632zM625.664 769.024c0-0.512 0.512-0.512 1.024-1.024 1.536-0.512 6.656 1.024 5.12-3.072-1.024-0.512-1.536-1.536-1.536-2.56 0-1.536 1.536-2.56 2.56-3.584s2.048-2.56 1.024-4.096c0-0.512-0.512-0.512-0.512-1.024-0.512-1.536 1.024-2.56 0.512-4.096-1.024-0.512-2.048-0.512-3.584-0.512-1.024 0-2.048 0.512-3.072 1.024-0.512 0.512-1.024 2.048-0.512 2.56l-1.024 16.384zM630.784 776.192c1.536 0 3.584 0 5.12 0.512 3.072 0.512-1.536 4.608-2.048 5.632-0.512 0.512-1.024 1.024-2.048 1.024 1.536 0.512 2.56 1.024 4.096 1.536h0.512c0.512 0 0.512-0.512 0.512-1.024 0-1.024 0-1.536 0.512-2.56 0.512-0.512 1.024-1.024 2.048-1.536 0.512-0.512 1.024-1.536 0.512-2.048h-0.512c1.536 0.512 3.584 1.024 3.584 2.56v0.512l0.512 0.512c1.024 0.512 1.536 0.512 2.56 1.024 0-2.048-1.536-3.584-3.584-4.096-0.512 0-0.512 0-1.024-0.512s0-1.536 0.512-2.048l-11.264-0.512c0.512 0.512 0.512 0.512 0 1.024zM647.168 774.144c-1.024-1.024-2.56-1.024-4.096-1.024h-1.024v0.512c1.024 2.048 3.584 2.56 4.608 4.608 0 0 0 0.512 0.512 0.512 0.512 0.512 1.536 0 1.536-0.512 0.512-2.048 0-3.584-1.536-4.096zM640 767.488h-2.56c-1.024 0-2.56-0.512-3.584-1.536l0.512 1.024c1.536 1.536 3.072 3.584 4.608 4.608 0-0.512 0.512-1.536 0.512-2.048s1.536-1.024 2.048-0.512c0-1.024-0.512-1.536-1.536-1.536zM647.168 784.896c-3.072-0.512-6.656 4.096-9.728 4.608-2.56 0.512-5.12-1.024-7.168 0-0.512 0-0.512 0.512-0.512 1.024s0.512 1.024 1.024 1.024h1.536c3.072-0.512 5.632-0.512 8.704-1.024v4.096c0.512 0.512 1.024 1.024 2.048 1.024 0.512 0.512 1.536 1.024 1.024 1.536 0.512-0.512 1.536-0.512 2.048 0 0-2.048 0-4.096 0.512-5.632v-0.512c0.512-0.512 1.536 0 1.536 1.024 0.512 0.512 0.512 1.536 1.536 1.536 1.024-1.024 0-8.704-2.56-8.704zM616.96 797.696c-0.512-2.56-6.656-5.12-8.704-5.632-4.096-1.024-8.704 3.072-11.776 5.632-1.024 0.512-2.048 1.536-3.072 1.536s-2.048 0-3.072 0.512c-2.56 0.512-4.096 3.584-6.656 3.072-1.536 0-3.072-1.536-4.608-0.512l-1.024 1.024c-1.536 1.536-4.608-0.512-6.144 0.512-1.536 1.024-1.024 3.584 0 4.608 1.024 1.536 3.072 2.56 4.096 4.096 0.512 1.536 0.512 3.072 1.536 4.608 1.536 2.56 5.12 2.048 8.192 2.048 3.584 0 6.656 0.512 9.728 2.048 2.048 1.024 4.096 2.048 6.144 1.536 2.048-0.512 3.584-2.56 3.584-5.12 0-0.512 0-1.024 0.512-1.536 1.024-1.024 3.584-0.512 4.096-2.048 0.512-1.536-1.536-3.072-0.512-4.096 0-0.512 0.512-0.512 1.024-0.512 1.536-0.512 3.584-0.512 5.12-0.512 0.512-1.024-1.536-2.048-2.56-2.56-2.048-1.024-3.072-4.096-2.048-6.144s3.584-3.072 6.144-2.56zM621.056 809.984c-5.12 1.536-2.56 8.192-8.192 10.24 0 0.512 0.512 1.024 1.024 1.024s1.536 0 1.536 0.512v1.536l-1.536 4.608c1.536 1.024 3.072 0 4.096-1.536 0.512 0.512 0.512 1.024 1.024 1.536 1.024-1.536 1.024-3.584 0.512-5.12 0-0.512-0.512-1.024-0.512-1.536 0.512-1.536 2.56-1.536 3.584 0 1.024 1.024 0.512 2.56 0.512 4.096 1.536 0.512 3.072 1.024 3.584 2.56 0 0.512 0.512 0.512 0.512 1.024 1.024 1.024 3.072 0 3.072-1.536s-1.024-2.56-2.048-3.584c-1.024-1.024-2.56-2.048-3.072-3.072-0.512-1.024 0-2.56 1.024-2.56h1.024c1.536 0.512 3.072 0 4.608-0.512 0.512-1.024-0.512-2.048-1.536-2.048s-2.048 0.512-2.56 1.024c-1.024 0.512-2.048 1.024-3.072 0.512-0.512 0-1.024-0.512-1.536-0.512-0.512 0-0.512 0.512-1.024 1.024s-1.024 1.024-2.048 1.024-2.048-0.512-2.048-1.024 0-1.536 0.512-2.048c1.536-2.56 5.12-2.56 8.704-2.56h8.704c1.024 0 2.048 0 2.56-0.512 1.024-0.512 1.536-1.024 1.536-2.048-5.12 1.024-10.752 1.024-15.872 0 0-0.512-1.536-1.024-3.072-0.512zM554.496 808.96c-1.024-1.024-2.56-2.048-3.072-3.584l-1.536-3.072c-1.536-3.072-3.584-5.632-6.144-8.192s-5.12-5.632-8.704-7.68c-2.56-1.536-4.096-2.56-6.144-4.096-1.024-1.024-2.048-2.048-3.072-3.584-2.048-3.072-5.632-3.584-8.704-5.632 1.536 3.584 2.56 7.168 5.12 10.24 2.56 2.56 5.632 4.608 7.168 7.68 1.024 1.536 1.536 3.584 2.048 5.12 1.024 2.048 2.048 3.584 3.584 5.632 3.584 4.096 7.168 7.68 11.264 11.264 1.536 1.536 3.072 3.072 5.12 4.096s4.608 1.536 6.656 0.512c-0.512-2.048-1.536-4.096-2.048-6.144 0-0.512-0.512-1.536-1.536-2.56zM560.64 821.248c-1.024 0-2.048 0-3.072-0.512 16.384 7.168 34.304 11.776 52.224 13.824-9.216-1.536-18.432-6.144-27.648-8.192-2.56-0.512-5.632-1.024-8.192-1.536-2.048-0.512-3.584-2.048-5.632-2.56-2.56-1.536-4.608-1.024-7.68-1.024zM635.904 837.12c-1.024 0-1.536 0-2.048 0.512s-2.048 1.536-1.536 2.048c0.512 1.024 2.56 0 3.584-0.512 3.072-1.024 6.656-1.536 9.728-2.048 0.512 0 1.024 0 1.024-0.512s0-1.024-0.512-1.024h-1.024l-9.216 1.536zM649.728 824.32c0.512-0.512 0-1.024-0.512-1.536s-1.024-0.512-2.048-0.512h-1.024s-0.512 0-0.512 0.512h-0.512c-0.512 0.512 0 1.024 0 1.024 0.512 0.512 1.536 0.512 2.56 1.024 1.024 0 2.048 0 2.048-0.512zM657.408 820.736c-0.512 0-4.096 0.512-4.096 1.536 0 0.512 3.072 1.024 3.584 1.024 1.024 0 2.048 0.512 2.56 0.512s1.024 0.512 1.536 0.512c1.024 0 2.048 0 3.072-0.512 0.512 0 1.024 0 1.024-0.512 0.512-0.512 0-1.024-0.512-1.536s-1.024-0.512-1.536-0.512c-1.024 0-3.584-0.512-5.632-0.512zM665.088 816.128c2.56 0.512 4.608 2.048 6.656 3.584l-1.024 1.024c0.512 0.512 1.024 0.512 1.536 0.512s1.536 0 1.536 1.024c0 0.512-0.512 0.512-0.512 1.024s0.512 1.024 1.024 1.536h2.048c5.632-0.512 11.776-0.512 17.408 1.024 0.512 0 1.024 0 1.536 0.512s0.512 1.024 0 1.024c0 0-0.512 0.512-1.024 0.512-2.048 0.512-3.584 1.024-5.632 2.048-0.512 0-1.024 0.512-1.024 1.024-0.512 1.024 1.024 1.536 2.048 1.536 3.072 0.512 6.144-0.512 8.704-2.048 1.536 1.024 3.584 1.536 5.12 1.536 2.048 0 3.584-1.024 5.12-1.536 3.072-1.024 6.144-2.56 8.704-4.608 0.512-0.512 1.024-1.024 2.048-1.024 0.512-0.512 1.536-0.512 2.048 0 0.512 0 0.512 0.512 0.512 1.024 0.512 0.512 1.536 1.024 2.56 1.024 4.096 0.512 8.192-0.512 11.776-2.56-3.584-1.536-7.68-3.072-11.776-4.096 1.536 0 2.56-0.512 4.096-0.512 0.512 0 1.024 0 1.536-0.512-1.536-0.512-2.56-0.512-4.096-0.512h-2.56c-1.024-0.512-1.536-1.536-1.024-2.048-6.656-1.024-13.824-1.536-20.48-1.536H696.32c-3.584 0.512-6.656 1.536-9.728 3.072-2.048 1.024-4.608 2.56-7.168 2.56v-1.024 0.512-1.536-0.512-2.048h-0.512s-0.512 0-0.512-0.512h-0.512-0.512c-2.56-0.512-5.12-1.024-7.168-1.024h-1.024c-0.512 0-0.512 0.512-0.512 1.024s-1.536 0.512-3.584 0.512zM652.8 808.96c-1.024 2.048-1.536 4.096-1.536 6.144 0.512 0 1.024-0.512 1.536 0v0.512c0 0.512 0.512 1.024 0.512 1.536h0.512c0.512-0.512 0.512-1.024 0.512-1.536s-0.512-1.024-0.512-1.536 0.512-1.024 1.024-1.024h0.512c0.512 0 0.512-0.512 0.512-0.512v-1.024c0-0.512 0.512-0.512 1.024-1.024 0.512 0 1.024-0.512 1.024-0.512v-1.024h-1.024v-0.512c0.512-0.512 1.536-1.024 2.048-1.536 0-0.512-1.024-1.024-1.024-0.512-2.048-0.512-4.096 1.024-5.12 2.56zM629.248 735.232c0.512 0 1.024 0 1.024-0.512 1.024-1.024 2.048-2.048 2.56-3.584 0.512-0.512 0.512-1.024 0.512-1.536 0.512-1.536 2.048-4.608 1.024-6.144l-0.512-0.512c0-0.512 0-1.024-0.512-1.536-1.536 0.512-2.56 1.536-3.072 3.072h-0.512c-2.56 2.048-3.584 6.144-2.56 9.216 1.024 0.512 1.536 1.536 2.048 1.536zM668.672 688.128c-0.512 0.512-1.024 1.024-1.024 1.536v0.512h0.512c1.024 0.512 2.048 1.024 2.048 2.048v2.048c0 0.512 0.512 1.024 0.512 1.536 0.512 0.512 1.024 0.512 1.536 0.512 1.024 0 1.024-1.024 1.536-1.536 0.512-1.536 1.024-2.56 1.536-4.096v-0.512l0.512-0.512c0.512-0.512 0-1.024 0-1.024-0.512-0.512-0.512-0.512-1.024-0.512 0 0 1.024-1.536 0.512-2.048-0.512-0.512-1.536 0.512-2.048 0.512-0.512 0-1.024-0.512-1.536-0.512-2.048 0-2.56 1.024-3.072 2.048zM681.472 684.544c-1.536 1.024-3.072 1.536-4.608 2.048 1.024 0.512 1.024 1.536 1.536 2.56 0 0 0 0.512 0.512 0.512h1.024c0.512 0 1.024-0.512 1.024-1.024 0.512-0.512 0.512-1.024 0.512-1.536s0.512-1.024 1.024-1.024h0.512c1.024 0 1.536-1.024 1.536-1.536 0.512-2.048-2.048-0.512-3.072 0z"
        fill="#fe2206" p-id="721"></path>
    <path
        d="M687.104 678.4h-3.072c-2.048 0-4.096 1.024-6.144 2.048-1.536 1.024-2.048 2.56-4.096 3.072-0.512 0-1.024 0.512-1.536 0.512-0.512 0.512-0.512 1.024 0 1.536 2.56 1.024 5.12 0 7.168-1.024s4.608-2.56 7.168-3.072c1.024 0 2.048 0 2.048 1.024 0 0.512 0 0.512-0.512 1.024-0.512 1.024-0.512 2.048 0 2.56 0.512 1.024 1.536 1.536 2.56 1.024 1.024 0 2.048-1.024 2.048-2.56 0.512-2.048 0-3.072 2.048-3.584 2.048-0.512 4.096-0.512 5.632-1.024 0.512 0 1.024 0 1.536-0.512s0.512-0.512 0.512-1.024c0.512-0.512 1.536-0.512 2.56-1.024s1.536-2.048 1.536-3.072c0-1.024-0.512-2.048-0.512-3.584 0-2.048 0.512-4.096 0-6.144 0-0.512-0.512-1.536-0.512-2.048 0-1.024 1.024-1.536 1.536-2.048v-1.536c-0.512-3.072-1.536-5.632-4.096-7.68-0.512-0.512-1.536 1.024-1.536 1.536-0.512 0.512 0 1.536 0 2.048v7.68c-0.512 4.096-4.096 6.656-7.68 9.216-1.024-1.024-1.024-2.56 0-3.584-2.56 1.536-3.584 4.608-3.072 7.168 0 0.512 0.512 1.024 0 1.536 0 1.536-2.56 1.536-3.584 1.536zM699.904 644.096c-1.024 1.024-1.024 2.56-1.024 4.096 0.512 0.512 1.536 0 1.536-0.512 0.512-0.512 0.512-1.024 0.512-1.536 0.512-1.536 1.536-2.56 3.072-2.56 1.024 0 2.048 1.024 3.072 1.536 1.024 0.512 2.048 1.024 3.072 0.512 1.536-1.024 0.512-3.584 2.56-4.608 0.512-0.512 2.048-0.512 2.048-1.024s-0.512-1.024-1.024-1.536c-1.536-0.512-2.56-1.536-4.096-1.536-1.536-0.512-3.584-0.512-4.608-1.536-0.512-0.512-2.56-3.072-3.584-2.048-0.512 1.024 1.024 4.608 1.024 6.144 0 1.024 0.512 2.048 0 3.072-0.512 0.512-1.536 0.512-2.56 1.536zM698.368 612.864c0 0.512 0.512 0.512 0.512 1.024v1.024c-1.024 3.072 1.536 5.632 2.56 8.704 0.512 1.536 0 3.584 1.024 5.12 0.512 1.024 1.024 1.536 1.024 2.56 1.024-1.536 1.536-3.072 1.536-4.608 0.512 1.024 1.024 1.536 1.536 2.048 0-1.536-0.512-2.56-1.536-3.584-0.512-0.512-1.536-1.024-2.048-2.048-1.536-1.536-1.024-4.096-1.024-6.656 0-0.512 0-0.512 0.512-0.512h0.512c1.024 0.512 1.536 1.024 2.56 1.536 0.512-1.024 0-2.048-0.512-3.072-1.536-2.56-2.56-4.608-4.096-7.168-0.512-0.512-0.512-1.536-1.024-2.048-1.024-2.56-2.56-5.12-4.096-7.168-0.512 1.024 0 2.56 0 3.584 0 1.536-0.512 3.072 0.512 4.608 0.512 1.024 2.048 2.048 2.56 3.584-0.512 0.512-1.024 2.048-0.512 3.072zM471.552 745.984c0.512-0.512 0.512-1.536 0.512-2.56l-1.536-6.144c-0.512-1.536-0.512-2.56-2.56-1.024-1.536 1.024-1.536 2.56-2.048 4.096 0 1.024-0.512 1.536-0.512 2.56s-0.512 1.536 0.512 2.56c0.512 0.512 1.536 0.512 2.048 1.024 1.536 0.512 2.56 0.512 3.584-0.512z"
        fill="#fe2206" p-id="722"></path>
</svg>